<?xml version="1.0" encoding="utf-8"?>
<!-- Generator: Adobe Illustrator 16.0.0, SVG Export Plug-In . SVG Version: 6.00 Build 0)  -->
<!DOCTYPE svg PUBLIC "-//W3C//DTD SVG 1.1//EN" "http://www.w3.org/Graphics/SVG/1.1/DTD/svg11.dtd">
<svg version="1.1" id="cmaworld" xmlns="http://www.w3.org/2000/svg" xmlns:xlink="http://www.w3.org/1999/xlink" x="0px" y="0px"
	 width="275.463px" height="262px" viewBox="0 0 275.463 262" enable-background="new 0 0 275.463 262" xml:space="preserve">
<g id="cmaworld_1_">
	<path fill="#6D6E71" d="M230.865,138.514c1.439,0.018,2.895,0.166,4.317,0.021c3.032-0.312,5.278,0.06,4.573,4.011
		c-0.424,2.368,0.982,2.729,2.984,2.718c10.559-0.064,21.118-0.029,31.697-0.029c0.495,1.557-0.754,2.25-1.4,3.111
		c-3.971,5.273-7.931,10.557-12.08,15.684c-1.347,1.658-1.224,2.698,0.026,4.279c4.681,5.917,9.22,11.944,14.479,18.805
		c-15.443,0-30.098,0-44.746,0c-0.555-0.317-0.813-0.839-0.983-1.423c-1.396-4.782-1.957-5.183-6.823-4.934
		c-0.72,0.037-1.408,0.21-2.111,0.351c-0.793,0.219-1.59,0.26-2.399,0.154c-0.43-0.05-0.853-0.124-1.272-0.193
		c-1.408-0.377-2.847-0.312-4.277-0.312c-15.053,0.001-30.104,0.003-45.156-0.002c-1.674,0-3.354-0.085-4.923,0.634
		c-1.499,0.561-2.603,1.66-3.754,2.714c-11.718,10.711-29.981,10.613-41.487-0.217c-0.959-0.905-1.87-1.86-3.09-2.435
		c-1.457-0.735-3.017-0.701-4.583-0.699c-15.96,0.01-31.92-0.086-47.878,0.074c-3.696,0.035-7.396-0.123-11.079,0.068
		c-1.523,0.46-3.234,0.594-4.121,2.238c-0.384,0.525-0.495,1.098-0.254,1.727c0.215,0.797,0.309,1.567-0.448,2.159
		c-15.092,0-30.184,0-46.072,0c2.954-3.901,5.564-7.233,8.043-10.667c2.506-3.464,7.292-6.596,7.043-10.354
		c-0.23-3.506-4.505-6.754-7.029-10.092c-2.519-3.334-5.073-6.64-7.588-9.925c0.837-1.22,1.886-0.722,2.742-0.725
		c9.587-0.043,19.175-0.123,28.761,0.032c2.785,0.046,4.061-0.707,3.602-3.59c-0.407-2.551,0.745-3.379,3.223-3.185
		c2.383,0.187,4.791,0.034,7.188,0.033c1.008-0.84,2.156-1.202,3.463-1.024c0.611,0.014,1.222,0.014,1.833-0.006
		c1.421-0.219,2.843-0.142,4.267-0.015c1.04-0.175,2.083-0.068,3.126-0.068c3.094-0.819,6.214-0.147,9.318-0.151
		c14.994-0.025,29.988-0.049,44.981,0.017c2.981,0.014,5.532-0.688,8.09-2.328c11.583-7.417,23.328-7.176,34.868,0.063
		c2.594,1.627,5.133,2.279,8.092,2.261c16.792-0.116,33.584,0.116,50.377-0.14c1.201-0.02,2.398,0.002,3.574,0.278
		c0.839,0.056,1.684-0.019,2.521,0.066c1.646-0.169,3.291-0.226,4.938,0.011c0.62,0.021,1.243,0.021,1.865,0.005
		C228.649,137.283,229.797,137.75,230.865,138.514z"/>
	<path fill="#747578" d="M230.865,138.514c-1.285,0.025-2.574,0.053-3.861,0.077c-1.465-1.621-1.018-3.627-1.019-5.499
		c-0.024-33.075-0.019-66.149-0.021-99.225c0-5.792-0.084-5.849-5.752-5.933c-1.649-0.024-3.383,0.309-4.871-0.781
		c-1.525-2.171-0.819-4.654-0.871-6.997c-0.057-2.548-1.077-3.817-3.67-3.736c-0.961,0.031-1.922-0.003-2.881-0.003
		c-46.457,0-92.917-0.003-139.373,0.009c-1.67,0-3.368-0.23-4.982,0.389c-1.965,1.397-1.182,3.483-1.225,5.292
		c-0.13,5.496-0.384,5.742-5.979,5.871c-1.798,0.041-3.902-0.776-5.233,1.293c-0.557,1.645-0.336,3.336-0.337,5.004
		c-0.013,32.581-0.006,65.162-0.018,97.744c0,1.79,0.168,3.595-0.251,5.37c-0.189,0.438-0.443,0.837-0.761,1.191
		c-1.259-0.008-2.518-0.02-3.777-0.025c0.043-1.561,0.124-3.12,0.124-4.68c0.007-35.43,0.043-70.862-0.059-106.293
		c-0.009-3.147,0.589-4.381,4.071-4.258c7.624,0.269,7.794,0.062,7.58-7.658c-0.088-3.175,0.777-3.999,3.975-3.993
		c51.166,0.106,102.333,0.105,153.499,0.003c3.131-0.006,4.096,0.69,3.994,3.938c-0.24,7.739-0.058,7.891,7.848,7.727
		c3.044-0.063,3.796,0.874,3.787,3.841c-0.098,35.551-0.065,71.103-0.061,106.655C230.743,135.396,230.822,136.955,230.865,138.514z
		"/>
	<path fill="#747578" d="M46.038,183.451c-0.317-2.853,1.395-3.281,3.652-3.062c0.168,0.16,0.336,0.319,0.506,0.478
		c0.857,1.57,0.569,3.287,0.573,4.946c0.024,15.367,0.006,30.737,0.023,46.104c0.001,1.549-0.213,3.129,0.41,4.617
		c0.963,1.47,2.484,1.166,3.879,1.19c7.093,0.138,7.087,0.13,7.238,7.396c0.029,1.395-0.276,2.928,1.31,3.795
		c1.405,0.507,2.859,0.342,4.291,0.342c46.9,0.009,93.802,0.009,140.702,0.004c5.709,0,5.75-0.068,5.826-5.876
		c0.021-1.54-0.234-3.136,0.643-4.562c2.063-1.808,4.582-1.058,6.891-1.033c2.923,0.024,4.042-1.07,4.027-4.025
		c-0.077-16.041-0.031-32.084-0.045-48.126c-0.002-1.183,0.146-2.42-0.797-3.374c-1.336-0.812-3.043-0.531-4.334-1.468
		c-0.115-0.154-0.229-0.312-0.344-0.47c2.898-1.293,5.762-0.608,8.651,0.082c1.407,0.338,1.479,1.313,1.493,2.429
		c0.021,1.424,0.056,2.848,0.084,4.272c0.008,17.159-0.032,34.323,0.07,51.486c0.018,2.663-0.49,3.793-3.509,3.745
		c-8.119-0.127-8.226,0.021-8.14,8.167c0.027,2.581-0.514,3.49-3.327,3.482c-51.608-0.088-103.219-0.08-154.829-0.015
		c-2.487,0.003-3.269-0.665-3.266-3.21c0.008-8.393-0.095-8.518-8.277-8.438c-2.744,0.024-3.404-0.812-3.388-3.467
		c0.103-17.283,0.032-34.565,0.018-51.851c0.03-0.854,0.105-1.718-0.719-2.304C44.957,183.957,45.526,183.72,46.038,183.451z"/>
	<path fill="#E6E6E7" d="M218.209,138.531c-18.666,0.01-37.332-0.011-55.998,0.067c-2.385,0.01-4.272-0.535-6.248-2.001
		c-10.396-7.723-24.524-7.632-35.21,0.177c-1.761,1.287-3.441,1.831-5.583,1.821c-16.423-0.064-32.846-0.035-49.268-0.037
		c-2.473,0-4.945-0.001-7.417-0.002c-1.501-1.366-1.508-3.191-1.509-5.002c-0.022-31.219-0.036-62.438,0.01-93.656
		c0.008-5.362,0.921-6.149,6.383-6.167c1.081-0.003,2.161-0.01,3.243-0.021c1.799-0.021,2.566-0.931,2.586-2.7
		c0.023-2.038-0.108-4.086,0.23-6.112c0.367-2.195,1.568-3.438,3.892-3.411c0.72,0.008,1.44-0.009,2.161-0.009
		c41.905,0,83.812-0.001,125.715,0.002c5.405,0.001,6.199,0.79,6.331,6.214c0.021,0.841,0.09,1.688,0.015,2.521
		c-0.248,2.69,1.017,3.669,3.605,3.53c10.037-0.54,8.29,1.666,8.301,8.64c0.043,30.378,0.022,60.756,0.003,91.135
		C219.447,135.266,219.929,137.188,218.209,138.531z"/>
	<path fill="#E6E6E7" d="M115.993,180.557c10.562,12.479,29.554,13.959,41.858,3.24c1.265-1.102,2.416-2.33,3.619-3.499
		c3.208-0.515,6.436-0.214,9.652-0.224c14.467-0.041,28.936-0.03,43.4,0.002c1.28,0.004,2.632-0.395,3.845,0.396l-0.034-0.028
		c1.239,1.092,1.129,2.562,1.129,4.006c-0.002,13.937,0.018,27.866-0.01,41.801c-0.01,4.199-0.807,4.925-5.137,4.979
		c-0.359,0.004-0.723,0-1.081,0.001c-5.59,0.016-5.59,0.016-5.708,5.754c-0.118,5.733-0.859,6.497-6.424,6.497
		c-41.8,0.005-83.602,0.005-125.403,0.001c-5.643-0.001-6.37-0.729-6.483-6.42c-0.007-0.361-0.005-0.722-0.01-1.081
		c-0.064-4.728-0.064-4.728-4.901-4.75c-1.081-0.006-2.163-0.011-3.243-0.012c-2.311-0.003-3.519-1.24-3.899-3.431
		c-0.268-1.549-0.203-3.113-0.204-4.674c-0.006-12.131-0.009-24.266,0.001-36.396c0.001-1.438-0.076-2.887,0.292-4.301
		c0.359-1.379,0.985-2.377,2.673-2.372c18.498,0.053,36.996-0.066,55.493,0.087C115.616,180.136,115.806,180.406,115.993,180.557z"
		/>
	<path fill="#E6E6E7" d="M55.434,138.586c-1.377-0.031-2.754-0.064-4.131-0.098c-1.154-1.039-0.849-2.438-0.85-3.726
		c-0.019-34.347-0.023-68.697-0.004-103.045c0.002-3.852,0.25-4.046,4.084-4.112c7.299-0.127,7.299-0.127,7.441-7.523
		c0.072-3.769,0.265-4.001,4.191-4.003c48.161-0.015,96.321-0.015,144.481,0.001c3.858,0.001,4.062,0.252,4.131,4.066
		c0.126,7.329,0.126,7.329,7.444,7.459c3.826,0.067,4.076,0.265,4.078,4.12c0.021,34.349,0.016,68.698-0.002,103.046
		c0,1.29,0.275,2.68-0.814,3.746c-1.559-0.009-3.115-0.016-4.672-0.023c-1.874-1.258-1.327-3.211-1.329-4.94
		c-0.024-31.463-0.019-62.927-0.021-94.392c0-5.419-0.002-5.419-5.246-5.431c-5.812-0.014-6.494-0.704-6.604-6.67
		c-0.017-0.961-0.053-1.922-0.031-2.882c0.043-2.032-1.041-2.777-2.936-2.703c-0.839,0.033-1.682,0.001-2.521,0.001
		c-42.515,0-85.023,0-127.538,0c-5.376,0-5.377,0.004-5.453,5.252c-0.017,1.201,0,2.402-0.199,3.593
		c-0.369,2.199-1.559,3.45-3.891,3.399c-0.24-0.005-0.48,0.004-0.721,0.006c-7.923,0.093-7.437-1.408-7.439,7.586
		c-0.011,30.263,0.005,60.526-0.02,90.79C56.867,134.348,57.258,136.725,55.434,138.586z"/>
	<path fill="#FEFEFE" d="M132.515,188.398c-17.919-3.148-28.442-25.633-19.113-40.906c0.409-0.67,1.246-1.078,1.884-1.606
		c0.725,0.696,0.644,1.606,0.23,2.293c-2.72,4.502,0.161,7.271,3.013,10.069c0.762,0.748,1.818,1.097,2.553,1.882
		c0.272,2.127-1.654,3.05-2.558,4.511c-1.613,2.604-1.942,4.836,0.811,6.873c1.633,1.207,2.285,3.021,2.709,4.936
		c0.336,1.514,0.664,3.049,2.748,4.336c0.166-4.539,1.667-8.338,3.587-12.015c0.717-1.371,0.166-2.461-1.278-3.223
		c-2.229-1.181-4.26-2.649-5.617-4.864c-0.251-0.585,1.15-2.161-0.979-1.62c-1.975-2.22-1.861-3.42,0.456-4.577
		c0.641-0.32,1.354-0.453,2.038-0.664c4.188-1.281,6.686-3.968,7.001-8.453c0.155-0.312,0.381-0.565,0.648-0.781
		c1.479-1.051,3.52-2.42,2.997-4.063c-0.537-1.688-2.976-0.745-4.563-0.794c-2.642-0.078-5.25,0.489-7.879,0.729
		c-0.537-0.146-0.952-0.383-0.81-1.051c10.972-9.506,27.754-8.908,37.605,1.345c-0.188,0.298-0.439,0.526-0.748,0.694
		c-0.439,0.191-0.935,0.422-1.381,0.318c-5.443-1.257-10.269,0.37-15,2.921c-1.402,0.757-2.607,1.202-2.062,3.078
		c0.102,0.343,0.188,0.729,0.087,1.063c-0.986,3.211-0.417,4.679,3.489,4.123c2.051-0.293,4.496,0.601,3.343,3.849
		c-1.843,1.024-3.771,0.088-5.659,0.252c-2.244,0.194-3.992,0.948-4.544,3.327c-0.417,1.801,0.128,2.971,2.156,3.373
		c4.61,0.918,4.81,1.209,5.437,6.011c0.17,1.295,0.18,2.647,1.57,4.048c1.719-4.304,3.719-8.253,4.538-12.673
		c0.534-1.343,1.698-2.292,2.188-3.698c1.111-3.225,1.939-3.328,4.502-0.915c1.053,0.992,1.434,3.013,3.961,1.786
		c1.705-0.824,2.105-1.48,2.301-3.244c0.238-2.156-0.887-4.734,1.431-6.451c4.229,7.854,4.06,15.809,0.547,23.836
		c-0.536,0.146-0.946-0.105-1.338-0.416c-2.776-0.328-5.536,2.203-5.444,5.055c0.034,1.049,0.232,2.086,0.688,3.056
		c0.062,0.339-0.024,0.642-0.238,0.906c-1.856,2.435-4.249,4.134-7.11,5.188c-0.514,0.312-0.979,0.041-1.451-0.113
		c-5.223-0.844-10.178,0.24-15.028,2.08C133.713,188.755,133.137,188.787,132.515,188.398z"/>
	<path fill="#76777A" d="M55.434,138.586c0.083-1.553,0.238-3.105,0.238-4.658c0.015-32.413,0.061-64.826-0.064-97.238
		c-0.013-3.318,0.875-4.263,4.185-4.17c8.014,0.225,8.161,0.057,7.967-7.978c-0.078-3.176,0.647-4.245,4.083-4.235
		c44.297,0.127,88.594,0.126,132.891,0.001c3.418-0.01,4.188,1.028,4.106,4.228c-0.191,8.02-0.045,8.205,8.011,7.976
		c3.319-0.095,3.909,1.033,3.899,4.071c-0.104,32.413-0.065,64.825-0.061,97.238c0,1.562,0.076,3.117,0.118,4.678
		c-0.867,0.013-1.735,0.021-2.604,0.033c0.041-20.658,0.09-41.315,0.12-61.977c0.019-12.732-0.069-25.467,0.062-38.198
		c0.027-2.67-0.67-3.562-3.409-3.484c-2.813,0.081-6.413,1.346-8.288-0.62c-1.696-1.782-0.665-5.298-0.473-8.004
		c0.219-3.038-1.039-3.525-3.721-3.52c-42.764,0.07-85.523,0.081-128.288-0.018c-3.054-0.006-3.838,0.907-3.788,3.86
		c0.144,8.321,0.018,8.367-8.422,8.354c-2.244-0.003-3.758-0.041-3.747,3.102c0.117,32.912,0.073,65.826,0.081,98.738
		c0,0.597,0.093,1.194,0.143,1.792C57.465,138.566,56.449,138.576,55.434,138.586z"/>
	<path fill="#77787A" d="M115.993,180.557c-0.955-0.081-1.909-0.23-2.863-0.23c-17.281,0-34.563,0.067-51.844-0.029
		c-2.46-0.016-3.009,0.791-2.997,3.07c0.083,14.643,0.081,29.281,0,43.924c-0.012,2.174,0.601,2.921,2.835,2.891
		c2.963-0.041,6.745-1.312,8.691,0.537c1.982,1.881,0.648,5.695,0.614,8.646c-0.028,2.438,0.869,3,3.148,2.996
		c43.204-0.056,86.409-0.059,129.613,0.008c2.415,0.004,3.022-0.787,3.021-3.097c-0.011-2.94-1.369-6.716,0.642-8.626
		c1.819-1.729,5.511-0.584,8.354-0.461c2.609,0.112,3.188-0.854,3.174-3.297c-0.098-15.48-0.045-30.963-0.043-46.445
		c0.718-0.037,1.438-0.074,2.15-0.113l0.182,0.209c1.31,1.341,1.267,3.062,1.271,4.735c0.038,13.933,0.062,27.861-0.008,41.79
		c-0.027,5.46-1.087,6.439-6.563,6.654c-4.826,0.188-4.826,0.188-4.941,5.229c-0.139,6.146-0.973,7.017-7.229,7.021
		c-43.231,0.022-86.464,0.026-129.697-0.004c-6.153-0.005-7.026-0.939-7.173-7.115c-0.119-4.976-0.143-4.998-5.064-5.122
		c-6.284-0.154-7.157-1.025-7.178-7.499c-0.043-13.21,0.01-26.42-0.033-39.63c-0.005-1.871,0.382-3.971-1.972-4.932
		c-0.426-0.133-0.848-0.279-1.267-0.438c-0.385-0.226-0.743-0.49-1.071-0.795c0,0-0.049-0.043-0.05-0.043
		c3.638-1.777,7.508-0.496,11.212-0.564c17.14-0.33,34.29-0.158,51.437-0.131C113.592,179.695,115.024,179.228,115.993,180.557z"/>
	<path fill="#959799" d="M225.483,138.521c0.058-4.92,0.158-9.838,0.16-14.757c0.015-30.254-0.047-60.508,0.082-90.761
		c0.017-3.486-0.623-4.857-4.479-4.676c-7.188,0.337-7.414,0.078-7.121-7.044c0.146-3.633-0.854-4.582-4.537-4.572
		c-47.541,0.135-95.083,0.121-142.625,0.02c-3.248-0.006-4.342,0.767-4.237,4.153c0.234,7.508,0.053,7.529-7.49,7.535
		c-2.186,0.001-4.141-0.43-4.128,3.107c0.125,35.175,0.08,70.352,0.088,105.527c0,0.479,0.068,0.956,0.105,1.436
		c-0.514,0.032-1.028,0.063-1.541,0.094c0-0.241,0.001-0.485,0.003-0.729c0.543-1.015,0.305-2.112,0.306-3.176
		c0.013-34.613,0.013-69.225,0.001-103.836c-0.001-1.062,0.221-2.16-0.288-3.184c2.682-1.572,5.608-0.625,8.405-0.689
		c2.332-0.054,3.097-0.795,3.148-3.139c0.062-2.798-0.882-5.723,0.69-8.404c1.391,0.569,2.849,0.278,4.271,0.279
		c48.247,0.018,96.495,0.014,144.741,0.016c4.086,0,4.012,0.008,4.125,4.047c0.067,2.365-0.514,4.773,0.365,7.097
		c3.001,0.013,6.005,0.087,9.003,0.018c1.862-0.043,2.675,0.731,2.522,2.565c-0.021,0.239,0.002,0.48,0.002,0.72
		c-0.021,36.143-0.036,72.286-0.055,108.427C226.498,138.568,225.99,138.543,225.483,138.521z"/>
	<path fill="#88898C" d="M163.606,148.611c0.215,3.028-0.908,5.998-0.31,9.082c0.123,0.635,0.188,3.682-2.189,1.271
		c-0.33-0.333-0.886-0.607-1.104,0.07c-1.47,4.6-2.662,0.545-3.49-0.266c-1.243-1.209-2.039-2.88-4.246-3.675
		c1.15,2.994-0.469,4.493-2.383,5.846c-3.062,0.171-4.107-1.679-4.351-4.338c-0.101-3.999-3.118-2.896-5.212-2.673
		c-1.06,0.111-2.091,1.241-3.193,0.236c-1.319-1.199,0.496-2.104,0.444-3.188c-0.054-1.193,0.769-2.189-0.37-3.697
		c-0.904-1.199,0.42-3.596,2.633-3.697c1.787-0.084,3.095-0.717,4.48-1.729c2.425-1.766,5.161-2.083,8.117-1.354
		c1.479,0.363,3.08,0.217,4.628,0.302c1.696,0.854,2.664,2.617,4.333,3.511C162.133,145.746,162.873,147.18,163.606,148.611z"/>
	<path fill="#88898C" d="M121.085,140.054c4.359-2.082,9.002-1.265,13.558-1.301c0.604-0.005,1.132,0.337,1.256,1.054
		c0.188,1.085-3.533,5.119-4.91,5.312c-1.582-1.226-3.139-2.645-5.425-0.285c1.924-1.148,3.499-1.705,4.688,0.318
		c1.404,4.518-2.36,9.418-7.692,9.92c-1.064,0.099-2.272-0.231-2.714,1.09c-0.389,1.16,0.101,2.082,1.237,2.604
		c0.397,0.284,0.424,0.672,0.315,1.103c-0.084,0.106-0.169,0.221-0.255,0.328c-6.389-1.063-9.365-6.328-6.792-11.998
		c0.343-0.761,0.626-1.545,0.937-2.315c0.195-0.834,0.748-1.386,1.432-1.835C117.665,142.16,119.918,141.699,121.085,140.054z"/>
	<path fill="#F9F9FA" d="M73.806,157.463c1.483-1.336-0.802-4.236,1.934-4.15c2.994,0.092,1.145,2.801,1.416,4.272
		c0.341,1.858,0.108,3.825,0.08,5.747c-0.011,0.736,0.519,1.8-0.895,1.882c-0.849,0.048-1.675,0.063-2.164-0.873
		c-0.706-1.353-1.466-2.675-2.663-4.843c0,2.095-0.114,3.242,0.03,4.354c0.163,1.251-0.467,1.375-1.432,1.389
		c-1.008,0.014-1.526-0.272-1.503-1.416c0.061-2.879,0-5.763,0.041-8.643c0.01-0.75-0.395-1.809,0.908-1.968
		c0.981-0.121,1.932-0.072,2.483,0.976C72.587,155.234,73.157,156.265,73.806,157.463z"/>
	<path fill="#FBFBFB" d="M196.836,158.602c-0.002,3.996-1.703,6.085-4.979,6.107c-3.281,0.021-5.103-2.092-5.163-5.996
		c-0.062-3.973,1.971-6.45,5.225-6.373C195.055,152.414,196.838,154.685,196.836,158.602z"/>
	<path fill="#FBFBFB" d="M95.976,156.764c0.734,0.143,1.438,0.34,2.154,0.402c1.916,0.168,3.134,1.123,3.457,3.039
		c0.304,1.798-0.174,3.363-1.755,4.402c-1.654,1.092-3.498,1.125-5.109,0.122c-2.816-1.756-2.688-4.646-2.219-7.405
		c0.451-2.652,2.097-4.312,4.96-4.25c1.079,0.021,2.63-0.515,2.877,1.278c0.302,2.181-1.532,1.167-2.456,1.496
		C97.268,156.072,96.395,155.621,95.976,156.764z"/>
	<path fill="#FBFBFB" d="M206.784,157.058c2.539-0.414,4.562-0.134,5.63,1.955c0.797,1.562,0.745,3.283-0.39,4.767
		c-1.263,1.655-3.062,1.823-4.894,1.428c-2.992-0.646-4.438-4.824-3.127-8.805c0.877-2.652,4.119-4.137,6.762-3.27
		c1.174,0.385,0.988,1.17,1.01,1.966c0.03,1.271-0.771,0.865-1.424,0.651C209.123,155.348,208.006,155.326,206.784,157.058z"/>
	<path fill="#F9F9F9" d="M59.024,158.445c0.001-1.199,0.02-2.397-0.005-3.6c-0.02-0.951,0.184-1.605,1.339-1.668
		c1.4-0.073,1.541,0.729,1.527,1.814c-0.028,2.16-0.014,4.318,0.02,6.479c0.011,0.736,0.174,1.51,1.111,1.542
		c0.947,0.03,1.162-0.729,1.176-1.476c0.04-2.156,0.043-4.317,0.029-6.479c-0.007-1.03,0.016-1.918,1.454-1.884
		c1.433,0.037,1.412,0.962,1.406,1.965c-0.011,1.8-0.13,3.609,0.025,5.396c0.272,3.146-0.928,4.836-4.204,4.772
		c-3.121-0.062-4.207-1.788-3.89-4.71C59.09,159.893,59.023,159.166,59.024,158.445z"/>
	<path fill="#FCFCFC" d="M180.926,161.505c0.312,0.437,0.358,0.54,0.437,0.6c1.151,0.894,3.193-1.208,3.873,1.117
		c0.153,0.53-0.101,1.274-0.875,1.274c-2.124,0-4.446,0.689-6.298-0.362c-1.116-0.638-0.516-2.522,0.184-3.582
		c0.62-0.942,1.724-1.59,2.661-2.3c0.767-0.578,1.771-1.068,1.478-2.194c-0.331-1.264-1.49-0.819-2.403-0.879
		c-0.687-0.045-1.815,1.392-1.988-0.594c-0.12-1.388,0.528-1.938,1.796-2.077c2.092-0.232,4.308-0.348,5.262,1.918
		c0.85,2.016,0.312,3.999-1.646,5.354C182.627,160.314,181.854,160.857,180.926,161.505z"/>
	<path fill="#F9F9F9" d="M85.848,164.623c-1.726,1.248-3.684,0.377-5.523,0.597c-1.118,0.134-1.324-0.463-1.29-1.522
		c0.098-2.992,0.123-5.992,0.001-8.979c-0.057-1.418,0.632-1.729,1.701-1.531c1.646,0.304,3.744-1.03,4.871,0.942
		c0.59,1.029-0.199,1.695-1.492,1.604c-0.741-0.053-2.007-0.336-1.9,0.906c0.099,1.146,1.36,0.511,2.089,0.725
		c0.634,1.295,0.648,2.334-1.136,2.494c-1.06,0.1-1.426,0.657-1.359,1.655c0.077,1.157,0.875,1.19,1.757,1.26
		C84.716,162.859,86.527,162.244,85.848,164.623z"/>
	<path fill="#F8F8F8" d="M50.714,161.75c3.154,1.707,4.175,0.558,3.994-2.451c-0.085-1.432,0.017-2.875-0.028-4.311
		c-0.034-1.108,0.193-1.854,1.544-1.812c1.168,0.033,1.337,0.706,1.335,1.646c-0.006,2.395,0.262,4.815-0.027,7.174
		c-0.348,2.838-2.513,3.398-5.055,3.285C49.981,165.166,50.362,163.647,50.714,161.75z"/>
	<path fill="#77787A" d="M218.373,180.472c-18.969-0.058-37.936-0.116-56.899-0.173c0.892-0.848,2.012-0.617,3.062-0.617
		c16.838-0.007,33.674-0.007,50.51,0.014C216.19,179.697,217.47,179.332,218.373,180.472z"/>
	<path fill="#F9F9F9" d="M201.84,158.531c0,1.315-0.021,2.629,0.009,3.939c0.026,1.123,0.138,2.164-1.556,2.098
		c-1.502-0.059-1.248-1.037-1.319-1.974c-0.189-2.476,0.327-4.955-0.38-7.457c-0.316-1.108,0.511-2.407,1.936-2.505
		c1.785-0.12,1.229,1.374,1.291,2.32C201.9,156.142,201.84,157.34,201.84,158.531z"/>
	<path fill="#EBEBEC" d="M149.824,185.354c0.295,0.293,0.59,0.585,0.885,0.878c-4.946,2.963-10.346,3.312-15.898,2.729
		c0.125-1.72,1.512-1.536,2.604-1.615c1.397-0.103,2.805-0.076,4.151-0.542C144.307,186.279,146.981,185.33,149.824,185.354z"/>
	<path fill="#EDEEEE" d="M121.085,140.054c0.813,1.418-0.007,2.126-1.178,2.649c-1.053,0.47-2.125,0.896-3.19,1.345
		c0.167-2.386,2.003-3.45,3.676-4.646C120.625,139.619,120.855,139.838,121.085,140.054z"/>
	<path fill="#BDBEBF" d="M85.848,164.623c-0.163-0.909-0.599-1.452-1.626-1.479c-1.122-0.026-2.484,0.259-2.712-1.476
		c-0.192-1.471,0.481-2.131,1.919-2.342c1.129-0.168,0.942-1.146,0.876-1.971c1.252,0.985,1.221,1.975-0.206,2.641
		c-0.807,0.379-2.117,0.156-1.747,1.591c0.327,1.271,1.545,0.812,2.41,0.831C86.648,162.457,86.768,163.259,85.848,164.623z"/>
	<path fill="#E4E5E5" d="M141.989,187.775c-2.217,1.463-4.976-0.349-7.181,1.188c-0.837,0.104-1.625,0.014-2.293-0.563
		c0.502-0.227,1.005-0.453,1.507-0.682C136.686,186.748,139.348,185.875,141.989,187.775z"/>
	<path fill="#E1E1E2" d="M161.399,144.315c-2.412,0.024-2.927-2.295-4.333-3.511c0.312-0.02,0.623-0.04,0.936-0.059
		C159.519,141.57,160.416,142.983,161.399,144.315z"/>
	<path fill="#EDEDED" d="M157.82,181.044c-0.006-0.271-0.011-0.536-0.017-0.804c-0.198-1.629,0.558-2.606,2.085-3.062
		c0.516,0.104,1.002,0.236,0.766,0.953C160.049,179.435,159.275,180.57,157.82,181.044z"/>
	<path fill="#E0E0E0" d="M160.654,178.133c-0.17-0.188-0.341-0.375-0.511-0.562c-0.797-1.689,0.348-2.425,1.546-3.132
		c0.611-0.024,0.919,0.317,1.045,0.874C162.278,176.428,161.756,177.494,160.654,178.133z"/>
	<path fill="#FAFAFA" d="M162.734,175.312c-0.208-0.248-0.416-0.496-0.624-0.742c-0.317-1.371-0.362-2.592,1.499-2.787
		c0.184,0.223,0.363,0.441,0.544,0.662C163.681,173.402,163.209,174.356,162.734,175.312z"/>
	<path fill="#9C9D9F" d="M43.145,140.615c0.175,0.312,0.442,0.575,0.459,0.854c0.039,0.637-0.482,0.702-0.915,0.574
		c-0.225-0.066-0.547-0.494-0.495-0.653C42.271,141.152,42.635,141.006,43.145,140.615z"/>
	<path fill="#B5B6B7" d="M47.119,141.287c0.112,0.58-0.202,0.785-0.549,0.77c-0.284-0.016-0.557-0.255-0.834-0.395
		c0.195-0.229,0.358-0.603,0.593-0.652C46.576,140.953,46.894,141.199,47.119,141.287z"/>
	<path fill="#B5B6B7" d="M229.526,141.289c0.124,0.586-0.196,0.785-0.542,0.768c-0.286-0.016-0.561-0.256-0.838-0.396
		c0.193-0.229,0.357-0.6,0.593-0.649C228.988,140.955,229.305,141.199,229.526,141.289z"/>
	<path fill="#9E9FA0" d="M232.697,140.593c0.166,0.313,0.426,0.589,0.439,0.874c0.033,0.638-0.49,0.701-0.924,0.58
		c-0.227-0.063-0.549-0.497-0.498-0.65C231.797,141.154,232.159,141.007,232.697,140.593z"/>
	<path fill="#9E9FA0" d="M100.004,141.695c-0.441,0.176-0.728,0.391-1.013,0.387c-0.54-0.002-0.836-0.358-0.549-0.854
		c0.114-0.199,0.596-0.312,0.864-0.253C99.542,141.025,99.711,141.373,100.004,141.695z"/>
	<path fill="#9C9D9F" d="M96.94,141.422c-0.911,0.43-1.184,0.666-1.458,0.667c-0.505,0.001-0.866-0.32-0.615-0.839
		c0.097-0.199,0.564-0.312,0.856-0.299C96.023,140.961,96.315,141.166,96.94,141.422z"/>
	<path fill="#A2A3A4" d="M92.876,141.709c-0.429,0.183-0.714,0.412-0.992,0.402c-0.518-0.021-0.841-0.373-0.56-0.871
		c0.111-0.199,0.595-0.317,0.862-0.263C92.42,141.035,92.587,141.387,92.876,141.709z"/>
	<path fill="#A2A3A4" d="M77.173,141.619c0.331-0.299,0.534-0.627,0.774-0.658c0.273-0.035,0.758,0.123,0.841,0.326
		c0.217,0.535-0.185,0.838-0.672,0.834C77.853,142.119,77.589,141.852,77.173,141.619z"/>
	<path fill="#9E9FA0" d="M71.931,141.574c-0.413,0.237-0.666,0.496-0.931,0.514c-0.488,0.025-0.913-0.239-0.725-0.79
		c0.067-0.2,0.557-0.373,0.836-0.351C71.354,140.968,71.571,141.283,71.931,141.574z"/>
	<path fill="#9C9D9F" d="M203.377,141.595c0.338-0.294,0.543-0.615,0.782-0.646c0.274-0.031,0.759,0.129,0.841,0.328
		c0.213,0.536-0.188,0.826-0.681,0.812C204.051,142.084,203.793,141.826,203.377,141.595z"/>
	<path fill="#A2A3A4" d="M13.521,184.727c-0.349-0.23-0.773-0.357-0.833-0.581c-0.156-0.59,0.329-0.792,0.789-0.737
		c0.238,0.027,0.597,0.36,0.61,0.575C14.101,184.201,13.754,184.44,13.521,184.727z"/>
	<path fill="#A2A3A4" d="M197.336,142.256c-0.355-0.229-0.791-0.354-0.849-0.572c-0.146-0.57,0.312-0.811,0.784-0.747
		c0.242,0.032,0.586,0.361,0.617,0.593C197.918,141.725,197.564,141.975,197.336,142.256z"/>
	<path fill="#9E9FA0" d="M21.468,184.125c-0.447,0.223-0.722,0.469-0.997,0.469c-0.512,0-0.854-0.35-0.621-0.855
		c0.089-0.191,0.585-0.312,0.866-0.271C20.954,183.503,21.145,183.826,21.468,184.125z"/>
	<path fill="#A2A3A4" d="M184.271,141.337c-0.287,0.317-0.454,0.667-0.687,0.72c-0.27,0.061-0.752-0.052-0.862-0.246
		c-0.269-0.479-0.013-0.873,0.544-0.877C183.547,140.931,183.834,141.152,184.271,141.337z"/>
	<path fill="#A1A1A3" d="M25.521,183.867c-0.949,0.472-1.223,0.721-1.496,0.721c-0.523,0-0.834-0.371-0.605-0.865
		c0.09-0.191,0.563-0.295,0.858-0.288C24.582,183.439,24.88,183.631,25.521,183.867z"/>
	<path fill="#B5B6B7" d="M41.44,183.391c0.474,0.132,0.855,0.303,0.648,0.712c-0.113,0.222-0.553,0.433-0.802,0.39
		c-0.222-0.039-0.384-0.431-0.573-0.666C40.981,183.664,41.249,183.506,41.44,183.391z"/>
	<path fill="#9E9FA0" d="M176.377,142.222c-0.358-0.217-0.807-0.336-0.855-0.549c-0.143-0.567,0.316-0.808,0.789-0.747
		c0.245,0.031,0.589,0.352,0.628,0.586C176.967,141.697,176.605,141.949,176.377,142.222z"/>
	<path fill="#9E9FA0" d="M234.84,184.123c-0.445,0.224-0.724,0.472-0.998,0.472c-0.506,0-0.854-0.347-0.618-0.854
		c0.091-0.192,0.586-0.314,0.866-0.271C234.326,183.5,234.518,183.822,234.84,184.123z"/>
	<path fill="#A1A1A3" d="M252.67,183.854c-0.92,0.479-1.19,0.735-1.461,0.734c-0.507-0.003-0.852-0.353-0.608-0.857
		c0.094-0.198,0.562-0.308,0.856-0.303C251.754,183.433,252.053,183.625,252.67,183.854z"/>
	<path fill="#B5B6B7" d="M255.752,183.82c-0.369,0.321-0.582,0.657-0.818,0.676c-0.266,0.021-0.692-0.181-0.801-0.401
		c-0.196-0.413,0.197-0.646,0.543-0.646C254.963,183.445,255.254,183.64,255.752,183.82z"/>
	<path fill="#9C9D9F" d="M258.17,184.72c-0.205-0.298-0.537-0.56-0.513-0.774c0.074-0.558,0.568-0.66,0.997-0.464
		c0.219,0.101,0.303,0.488,0.443,0.745C258.822,184.373,258.543,184.521,258.17,184.72z"/>
	<path fill="#A2A3A4" d="M260.977,184.062c0.331-0.288,0.535-0.607,0.771-0.633c0.278-0.029,0.766,0.125,0.846,0.325
		c0.209,0.524-0.178,0.847-0.67,0.838C261.657,184.589,261.397,184.312,260.977,184.062z"/>
	<path fill="#B1B2B3" d="M181.209,141.595c-1.064,0.333-1.379,0.539-1.617,0.476c-0.226-0.062-0.368-0.412-0.549-0.635
		c0.258-0.131,0.521-0.365,0.777-0.363C180.125,141.076,180.426,141.285,181.209,141.595z"/>
	<path fill="#B1B2B3" d="M201.088,140.289c0.205,0.634,0.438,0.98,0.373,1.263c-0.057,0.233-0.438,0.453-0.722,0.542
		c-0.151,0.048-0.396-0.189-0.601-0.296C200.315,141.521,200.488,141.246,201.088,140.289z"/>
	<path fill="#B3B4B5" d="M208.731,141.836c-0.549,0.111-0.884,0.269-1.177,0.215c-0.389-0.072-0.539-0.434-0.312-0.776
		c0.104-0.149,0.453-0.288,0.595-0.222C208.116,141.186,208.324,141.463,208.731,141.836z"/>
	<path fill="#B3B4B5" d="M173.647,141.724c-0.466,0.179-0.744,0.366-1.024,0.369c-0.324,0.003-0.722-0.183-0.479-0.604
		c0.129-0.227,0.51-0.436,0.771-0.427C173.123,141.068,173.32,141.412,173.647,141.724z"/>
	<path fill="#B3B4B5" d="M224.752,141.395c0.223-0.097,0.53-0.35,0.803-0.312c0.174,0.023,0.285,0.478,0.43,0.733
		c-0.205,0.105-0.406,0.291-0.611,0.3C225.015,142.129,224.651,142.035,224.752,141.395z"/>
	<path fill="#B3B4B5" d="M103.439,141.592c-0.376,0.24-0.618,0.52-0.829,0.498c-0.255-0.026-0.485-0.305-0.726-0.475
		c0.201-0.203,0.394-0.56,0.604-0.567C102.735,141.037,102.998,141.322,103.439,141.592z"/>
	<path fill="#B1B2B3" d="M75.342,141.658c-0.389,0.211-0.655,0.479-0.873,0.439c-0.248-0.039-0.452-0.35-0.674-0.538
		c0.221-0.188,0.447-0.53,0.661-0.521C74.707,141.046,74.945,141.361,75.342,141.658z"/>
	<path fill="#B1B2B3" d="M67.531,142.125c-0.363-0.028-0.779-0.125-0.64-0.562c0.076-0.236,0.489-0.416,0.786-0.505
		c0.114-0.035,0.434,0.228,0.471,0.396C68.247,141.902,67.927,142.074,67.531,142.125z"/>
	<path fill="#B3B4B5" d="M49.659,140.841c0.405,0.304,0.801,0.446,0.89,0.696c0.162,0.455-0.255,0.599-0.618,0.578
		c-0.209-0.014-0.578-0.191-0.58-0.305C49.348,141.541,49.51,141.265,49.659,140.841z"/>
	<path fill="#B5B6B7" d="M17.029,183.388c0.161,0.124,0.403,0.312,0.646,0.499c-0.224,0.197-0.422,0.463-0.684,0.564
		c-0.124,0.047-0.448-0.18-0.542-0.354C16.227,183.685,16.501,183.492,17.029,183.388z"/>
	<path fill="#B3B4B5" d="M38.179,184.649c-0.365-0.268-0.709-0.396-0.832-0.637c-0.221-0.435,0.177-0.618,0.497-0.593
		c0.274,0.021,0.532,0.259,0.797,0.398C38.503,184.064,38.365,184.312,38.179,184.649z"/>
	<path fill="#B1B2B3" d="M46.038,183.451c-0.229,0.422-0.456,0.847-0.685,1.269c-0.491-0.146-1.298-0.161-1.029-0.897
		C44.604,183.045,45.419,183.408,46.038,183.451z"/>
	<path fill="#B3B4B5" d="M237.361,183.361c0.438,0.12,0.836,0.233,0.594,0.657c-0.13,0.228-0.516,0.442-0.768,0.423
		c-0.189-0.016-0.35-0.414-0.521-0.642C236.92,183.641,237.172,183.479,237.361,183.361z"/>
	<path fill="#A29E98" d="M215.53,26.861c-1.595-1.909-0.804-4.189-0.653-6.207c0.267-3.596-0.826-4.681-4.565-4.67
		c-47.927,0.132-95.849,0.093-143.773,0.063c-1.507-0.001-3.141,0.521-4.508-0.625c50.067-0.022,100.136-0.046,150.2-0.069
		c0.12,0,0.241,0.014,0.357-0.001c2.16-0.251,3.039,0.649,2.94,2.868C215.4,21.094,215.518,23.979,215.53,26.861z"/>
	<path fill="#A09C97" d="M49.784,27.654c1.039,1.121,0.635,2.509,0.636,3.787c0.021,34.21,0.021,68.422,0,102.634
		c0,1.274,0.405,2.668-0.656,3.775C49.771,101.118,49.777,64.387,49.784,27.654z"/>
	<path fill="#E6E6E7" d="M51.209,180.445c4.462-0.229,4.469-0.229,4.469,4.314c0.003,14.654,0.083,29.312-0.065,43.967
		c-0.03,3.012,0.839,3.883,3.837,3.832c8.312-0.143,8.459-0.007,8.3,8.419c-0.059,3.08,0.938,3.765,3.867,3.759
		c44.448-0.089,88.897-0.088,133.346,0c2.918,0.004,3.94-0.67,3.89-3.758c-0.146-8.379-0.003-8.523,8.354-8.414
		c2.992,0.041,3.558-1.04,3.537-3.736c-0.111-16.098-0.063-32.192-0.072-48.291c1.648-0.047,3.299-0.092,4.949-0.139
		c0.901,1.15,0.687,2.514,0.688,3.816c0.014,16.456,0.02,32.914,0.002,49.371c-0.003,4.312-0.164,4.443-4.438,4.488
		c-7.021,0.07-7.021,0.07-7.091,7.09c-0.044,4.322-0.125,4.438-4.478,4.438c-47.934,0.014-95.86,0.012-143.788,0.001
		c-4.487-0.002-4.504-0.059-4.543-4.733c-0.062-7.512,0.838-6.741-6.72-6.793c-4.769-0.029-4.805-0.045-4.808-4.84
		c-0.01-16.22-0.012-32.435,0.01-48.648C50.454,183.176,50.13,181.672,51.209,180.445z"/>
	<path fill="#949698" d="M51.209,180.445c-0.01,17.774,0.054,35.551-0.104,53.324c-0.026,3.02,1.055,3.57,3.741,3.543
		c7.895-0.081,8.038,0.021,7.889,7.826c-0.058,3.023,0.869,3.814,3.846,3.811c47.92-0.088,95.842-0.092,143.764,0.004
		c3.063,0.01,3.818-0.926,3.762-3.858c-0.15-7.748-0.02-7.863,7.904-7.771c2.758,0.027,3.732-0.652,3.711-3.598
		c-0.146-17.771-0.094-35.549-0.104-53.324c1.76,0.271,1.43,1.656,1.43,2.793c0.018,17.577-0.019,35.159,0.045,52.739
		c0.009,2.206-0.805,2.974-2.948,2.89c-2.865-0.113-5.74-0.011-8.608,0.004c-0.885,2.81-0.33,5.691-0.344,8.531
		c-0.009,2.059-0.693,2.854-2.711,2.625c-0.83-0.095-1.68-0.017-2.52-0.017c-47.89,0-95.776-0.002-143.667,0.016
		c-1.422,0.001-2.881-0.292-4.271,0.282c-1.573-2.684-0.627-5.605-0.69-8.404c-0.052-2.348-0.82-3.084-3.15-3.14
		c-2.798-0.063-5.725,0.885-8.406-0.69c0.565-1.264,0.285-2.597,0.288-3.893c0.021-16.604,0.006-33.212,0.031-49.814
		c0.001-1.289-0.326-2.631,0.331-3.871C50.689,180.447,50.949,180.445,51.209,180.445z"/>
	<path fill="#A29E98" d="M62.025,250.263c1.367-1.151,3.001-0.628,4.507-0.628c47.807-0.029,95.612-0.023,143.417-0.023
		c4.828,0,4.719-0.01,4.887-4.938c0.064-1.941-0.896-4.073,0.696-5.852c-0.015,3.002-0.095,6.004-0.019,9.004
		c0.046,1.877-0.74,2.66-2.569,2.502c-0.235-0.021-0.479,0.002-0.719,0.002C162.159,250.307,112.093,250.285,62.025,250.263z"/>
	<path fill="#A09C97" d="M50.429,180.449c0.003,17.938,0.014,35.873-0.009,53.812c-0.001,1.271,0.404,2.654-0.64,3.768
		c-0.012-19.197-0.026-38.396-0.04-57.596C49.971,180.416,50.199,180.421,50.429,180.449z"/>
	<path fill="#004E7F" d="M120.45,62.244c-0.206,2.631-0.388,5.264-0.621,7.893c-0.731,8.232-4.286,11.991-12.974,13.466
		c0.983-8.267,1.951-16.446,2.932-24.625c0.657-5.475,1.394-10.941,1.966-16.426c0.244-2.324,0.757-3.801,3.648-3.423
		c3.422,0.448,7.746-1.343,10.121,0.699c2.169,1.864,2.343,6.078,3.338,9.275c1.528,4.907,3.006,9.828,4.771,15.612
		c2.646-7.981,5.151-15.107,7.324-22.333c0.756-2.515,1.854-3.299,4.461-3.265c9.883,0.13,9.877,0.032,10.943,9.828
		c0.195,1.788,0.229,3.636,0.736,5.338c3.09,10.369-2.984,18.729-5.769,27.87c-3.354-1.841-3.48-4.392-4.42-19.942
		c-0.276-0.411-0.358-1.158-1.155-0.671c-2.168,6.51-4.652,12.815-9.405,18.023c-2.032,2.228-3.349,2.246-5.415,0.048
		c-4.857-5.169-7.203-11.519-9.178-18.099C120.488,60.276,120.927,62.078,120.45,62.244z"/>
	<path fill="#004E7F" d="M200.42,84.524c-3.436,0-6.904-0.108-10.364,0.041c-2.101,0.09-2.354-1.433-2.634-2.725
		c-0.565-2.621-2.057-3.316-4.601-3.162c-3.562,0.216-7.146,0.055-11.159,0.055c1.245-3.498,2.367-6.628,3.479-9.763
		c0.688-1.946,2.389-1.407,3.676-1.284c3.092,0.298,3.378-0.814,2.341-3.422c-1.317-3.323-2.28-6.788-3.676-11.031
		c-1.673,4.589-3.095,8.471-4.503,12.358c-1.102,3.037-2.161,6.088-3.271,9.122c-2.803,7.643-7.14,10.328-15.479,9.601
		c-0.383-1.151,0.35-2.064,0.715-3.027c5.033-13.191,10.119-26.362,15.118-39.566c0.667-1.766,1.43-2.587,3.542-2.604
		c10.225-0.085,10.21-0.164,13.85,9.512c4,10.64,8.04,21.265,12.008,31.917C199.909,81.748,200.715,82.898,200.42,84.524z"/>
	<path fill="#0082C1" d="M82.98,90.909c0.477-0.215,0.582-0.296,0.694-0.307c7.241-0.669,7.273-0.676,8.942,6.193
		c1.158,4.763,2.212,9.552,3.477,15.045c1.597-6.774,3.003-12.839,4.466-18.891c0.496-2.052,6.483-3.709,7.968-2.211
		c0.69,0.696,0.251,1.589,0.053,2.377c-2.652,10.577-5.39,21.133-7.925,31.738c-0.56,2.347-2.007,2.38-3.67,2.123
		c-1.847-0.289-4.468,1.362-5.214-2.011c-0.567-2.561-1.333-5.076-2.168-8.195c-1.572,2.854-1.869,5.526-2.494,8.076
		c-0.354,1.443-0.906,2.557-2.624,2.146c-2.025-0.485-5.159,1.526-6.005-1.271c-3.5-11.562-6.578-23.254-9.824-34.945
		c8.808-1.075,8.791-1.071,10.69,6.883c1.038,4.351,2.146,8.685,3.372,13.631C85.482,104.006,85.574,97.395,82.98,90.909z"/>
	<path fill="#004E7F" d="M107.537,51.899c-7.247-3.952-13.279-3.62-17.341,0.665c-3.681,3.881-4.441,10.686-1.722,15.432
		c2.978,5.203,8.163,6.714,16.449,4.623c-0.396,3.528-0.854,6.939-1.136,10.366c-0.174,2.119-1.737,2.023-3.105,2.181
		c-13.904,1.605-26.658-10.269-26.115-24.282c0.628-16.183,16.002-27.023,31.438-22.239c2.153,0.667,3.252,1.576,2.787,4.027
		C108.239,45.595,107.976,48.571,107.537,51.899z"/>
	<path fill="#0082C1" d="M161.101,126.798c-8.248,0.594-8.249,0.594-10.501-6.513c-0.29-0.914-0.561-1.834-0.859-2.744
		c-0.359-1.1-0.888-1.99-2.291-1.738c-1.433,0.257-1.048,1.398-1.078,2.281c-0.056,1.56-0.207,3.148,0.021,4.677
		c0.516,3.427-0.669,4.438-4.211,4.397c-3.264-0.037-3.944-0.961-3.881-4.047c0.203-9.841,0.164-19.688,0.018-29.53
		c-0.038-2.555,0.715-3.36,3.229-3.176c2.865,0.209,5.761-0.024,8.64,0.066c6.474,0.203,9.803,3.467,9.742,9.894
		c-0.048,4.657,1.286,9.715-3.205,13.416c-0.871,0.715,0.146,1.811,0.448,2.654C158.383,119.801,159.698,123.129,161.101,126.798z"
		/>
	<path fill="#0082C1" d="M184.508,108.798c0-5.159,0.09-10.319-0.043-15.475c-0.053-2.103,0.406-3.074,2.748-2.913
		c2.865,0.196,5.759-0.035,8.634,0.067c6.088,0.214,9.495,3.716,9.551,9.801c0.05,5.758,0.062,11.517-0.003,17.275
		c-0.062,5.664-3.167,9.061-8.729,9.398c-3.349,0.203-6.721-0.039-10.074,0.09c-1.902,0.074-2.123-0.86-2.105-2.408
		C184.547,119.355,184.51,114.076,184.508,108.798z"/>
	<path fill="#0082C1" d="M111.568,108.333c-0.002-2.881-0.079-5.767,0.014-8.645c0.199-6.155,4.147-9.564,11.033-9.634
		c6.805-0.07,11.166,3.359,11.37,9.342c0.208,6.118,0.19,12.253,0.011,18.372c-0.178,5.998-4.561,9.584-11.229,9.55
		c-6.667-0.035-10.958-3.676-11.176-9.617C111.477,114.582,111.57,111.457,111.568,108.333z"/>
	<path fill="#0182C1" d="M163.703,108.794c0-5.272,0.113-10.546-0.039-15.814c-0.106-3.676,2.5-2.383,4.228-2.478
		c1.741-0.095,3.921-0.804,3.85,2.5c-0.159,7.544,0.062,15.098-0.108,22.642c-0.062,2.658,0.651,3.851,3.392,3.392
		c0.351-0.059,0.718-0.008,1.077-0.008c4.643,0.004,6.141,2.197,4.839,6.838c-0.326,1.162-1.038,1.133-1.862,1.135
		c-4.434,0.015-8.867-0.063-13.298,0.044c-1.913,0.046-2.108-0.905-2.094-2.437C163.736,119.337,163.703,114.064,163.703,108.794z"
		/>
	<path fill="#8EABBF" d="M120.45,62.244c0-0.932,0-1.864,0-2.885c1.21,0.346,1.34,1.2,1.303,2.154
		C121.318,61.758,120.883,62,120.45,62.244z"/>
	<path fill="#C1CED6" d="M145.752,61.541c0.016-0.691,0.246-1.275,1.155-1.95c0,1.031,0,1.826,0,2.621
		C146.524,61.989,146.139,61.765,145.752,61.541z"/>
	<path fill="#CB4B32" d="M114.393,205.277c-0.001-2.75,0-5.5-0.001-8.252c0-1.539-0.333-3.103,2.191-3.091
		c2.105,0.011,3.186,0.494,2.868,2.783c-0.234,1.685,0.583,2.185,2.249,2.353c4.099,0.404,5.283,1.793,5.588,5.95
		c0.053,0.714,0.024,1.435,0.028,2.152c0.044,8.971-1.483,10.356-10.483,9.932c-1.858-0.088-2.532-0.646-2.469-2.5
		C114.469,211.498,114.394,208.387,114.393,205.277z"/>
	<path fill="#CB4A32" d="M75.748,205.128c0-0.962-0.002-1.923,0-2.884c0.008-7.223,2.623-9.357,9.877-8.366
		c1.778,0.243,1.751,1.2,1.771,2.456c0.021,1.324-0.15,2.596-1.859,2.304c-4.669-0.798-5.126,1.867-4.776,5.452
		c0.164,1.666,0.017,3.359,0.033,5.042c0.013,1.452-0.127,3.215,2.046,2.973c2.002-0.222,1.148-2.019,1.299-3.194
		c0.109-0.854-0.102-1.528-1.041-2.037c-1.502-0.811-1.203-2.639-0.64-3.482c1.163-1.749,3.275-0.725,4.979-0.794
		c1.432-0.062,1.229,1.188,1.242,2.112c0.027,2.045,0.034,4.084,0.006,6.129c-0.057,4.041-2.249,6.279-6.158,6.334
		c-3.991,0.053-6.484-2.074-6.74-5.917c-0.134-2.034-0.022-4.082-0.022-6.124C75.758,205.128,75.752,205.128,75.748,205.128z"/>
	<path fill="#CB4B32" d="M111.781,207.949c-0.001,0.953,0.025,1.91-0.006,2.865c-0.133,4.053-2.261,6.219-6.188,6.32
		c-4,0.104-6.489-2.188-6.72-6.257c-0.082-1.429-0.031-2.866-0.021-4.298c0.04-5.463,2.006-7.717,6.669-7.657
		c4.455,0.058,6.243,2.223,6.268,7.593C111.787,206.992,111.783,207.471,111.781,207.949z"/>
	<path fill="#CB4B32" d="M137.209,204.666c-0.992-1.437-2.315-1.018-3.428-0.949c-1.935,0.109-2.771-0.411-2.756-2.562
		c0.018-2.255,1.293-2.092,2.799-2.129c7.23-0.18,8.706,1.221,8.723,8.42c0.007,2.399,0.029,4.801-0.021,7.2
		c-0.017,0.732-0.092,2.382-0.979,1.67c-2.405-1.919-3.938,0.362-5.857,0.636c-2.986,0.428-5.141-0.73-6.078-3.75
		c-1.009-3.244,0.23-6.403,3.125-7.502C134.121,205.175,135.646,205.015,137.209,204.666z"/>
	<path fill="#CB4A32" d="M193.318,213.543c-2.062,3.185-4.71,4.197-8.188,3.229c-3.381-0.941-4.359-3.38-4.283-6.562
		c0.035-1.552-0.024-3.108,0.012-4.66c0.111-4.761,2.208-6.728,6.915-6.568c2.603,0.089,4.74,0.867,5.437,3.688
		c0.703,2.841,0.16,5.229-2.726,6.626c-0.539,0.26-1.065,0.541-1.601,0.812c0.35,1.877,1.82,0.854,2.69,0.879
		C193.556,211.045,193.779,211.983,193.318,213.543z"/>
	<path fill="#CB4B32" d="M172.108,207.013c1.837-3.492,0.128-9.976,7.349-7.558c-1.619,5.273-3.3,10.521-4.807,15.811
		c-0.42,1.48-1.164,1.775-2.54,1.837c-1.603,0.071-2.019-0.808-2.386-2.057c-1.296-4.37-2.719-8.702-3.93-13.095
		c-0.234-0.858-1.801-2.44,0.311-2.81c1.527-0.269,3.76-1.108,4.456,1.549C171.062,202.604,171.502,204.533,172.108,207.013z"/>
	<path fill="#CC4C34" d="M145.334,205.5c0.004-3.115,0.067-6.232-0.021-9.344c-0.051-1.771,0.733-2.258,2.368-2.233
		c1.615,0.021,2.779,0.144,2.732,2.256c-0.102,4.312,0.063,8.628-0.062,12.937c-0.062,2.168,0.634,3.147,2.854,2.86
		c1.971-0.255,3.062,0.194,3.082,2.636c0.021,2.65-1.455,2.453-3.22,2.471c-7.737,0.078-7.737,0.103-7.737-7.629
		C145.332,208.136,145.332,206.816,145.334,205.5z"/>
	<path fill="#CC4D35" d="M96.42,204.925c0,3.344-0.083,6.69,0.031,10.03c0.064,1.869-0.84,2.181-2.399,2.134
		c-1.512-0.048-2.833,0.061-2.807-2.142c0.08-6.688,0.081-13.377,0-20.063c-0.027-2.21,1.31-2.081,2.813-2.132
		c1.569-0.053,2.456,0.283,2.393,2.141C96.339,198.233,96.42,201.58,96.42,204.925z"/>
	<path fill="#CC4D34" d="M163.526,208.44c0.002,1.911-0.103,3.826,0.029,5.729c0.142,2.033-0.313,3.021-2.693,2.977
		c-2.222-0.043-2.528-1.011-2.489-2.845c0.086-4.177,0.104-8.354-0.007-12.527c-0.051-1.944,0.776-2.468,2.554-2.433
		c1.627,0.031,2.772,0.204,2.643,2.303C163.414,203.899,163.525,206.175,163.526,208.44z"/>
	<path fill="#CB4B33" d="M201.002,202.295c0,1.793-0.064,3.59,0.021,5.38c0.088,1.851-0.358,2.85-2.543,2.879
		c-2.198,0.031-2.562-0.926-2.524-2.806c0.074-3.823,0.057-7.653-0.099-11.479c-0.083-2.059,0.935-2.326,2.615-2.312
		c1.604,0.019,2.812,0.08,2.646,2.238c-0.156,2.021-0.031,4.062-0.031,6.098C201.056,202.295,201.029,202.295,201.002,202.295z"/>
	<path fill="#CC5039" d="M198.355,217.149c-1.689-0.22-2.646-1.134-2.617-2.808c0.032-1.695,1.098-2.669,2.712-2.655
		c1.798,0.019,2.861,1.075,2.737,2.962C201.072,216.379,199.922,217.053,198.355,217.149z"/>
	<path fill="#CC4F37" d="M163.657,196.111c-0.194,1.623-1.243,2.375-2.905,2.344c-1.683-0.03-2.812-0.918-2.812-2.59
		c0.001-1.902,1.312-2.705,3.12-2.61C162.748,193.339,163.679,194.24,163.657,196.111z"/>
	<path fill="#B2B3B5" d="M157.5,226.05c2.24,2.677-0.65,6.309,2.717,8.131C156.729,234.25,156.416,233.322,157.5,226.05z"/>
	<path fill="#9A9B9D" d="M120.77,226.455c0,2.227,0,4.451,0,6.728C118.931,231.904,118.931,231.904,120.77,226.455z"/>
	<path fill="#B9B9BB" d="M133.99,226.332c1.12,2.508,0.772,5.025,0.248,7.557C132.904,231.42,133.316,228.877,133.99,226.332z"/>
	<path fill="#ACADAF" d="M145.766,233.732c-1.279-2.391-0.85-4.88-0.227-7.381C146.67,228.75,146.361,231.233,145.766,233.732z"/>
	<path fill="#E4DAD9" d="M193.318,213.543c0.322-2.229-0.995-2.604-2.748-2.346c-0.664,0.097-1.307,0.397-1.932,0.674
		c-0.883,0.387-1.997,0.834-2.396-0.254c-0.436-1.191,1.037-0.883,1.633-1.275c0.271-0.18,0.67-0.162,1.014-0.232
		c0.921,0.788,2.042,0.456,3.086,0.547C194.088,210.842,194.33,211.902,193.318,213.543z"/>
	<path fill="#A5A6A8" d="M155.569,234.387c-3.133-0.693-3.524-2.425-2.452-7.838C154.59,228.906,151.801,232.233,155.569,234.387z"
		/>
	<path fill="#97979A" d="M117.024,233.345c0-2.39,0-4.78,0-7.17c0.298,0.017,0.597,0.034,0.894,0.05
		c-0.209,2.482-0.419,4.966-0.629,7.449C117.203,233.563,117.113,233.453,117.024,233.345z"/>
	<path fill="#8B8C8F" d="M137.457,233.58c-0.716-2.319-1.078-4.648,0-7.879C137.457,228.906,137.457,231.242,137.457,233.58z"/>
	<path fill="#909193" d="M125.396,229.347c0.713,2.065-0.507,4.21-2.255,3.646c-1.434-0.463-0.24-1.578,0.194-2.367
		C124.484,230.943,124.238,229.013,125.396,229.347z"/>
	<path fill="#88898C" d="M148.334,226.576c0,2.434,0,4.867,0,7.301C147.521,231.41,147.748,228.933,148.334,226.576z"/>
	<path fill="#E5E5E6" d="M125.396,229.347c-0.881,0.487,0.693,1.916-0.81,2.144c-0.642,0.101-1.06-0.246-1.253-0.859
		c0.434-0.736,0.705-1.512,0.577-2.381c0.762-1.061,1.021-0.004,1.448,0.348C125.372,228.846,125.383,229.096,125.396,229.347z"/>
	<path fill="#99999B" d="M141.195,234.337c-0.545-1.91-0.873-3.062-1.201-4.212C141.061,231.029,142.123,231.936,141.195,234.337z"
		/>
	<path fill="#9A9A9D" d="M143.006,225.57c0.574,2.147,0.537,3.219-0.782,4.422C142.474,228.584,142.656,227.558,143.006,225.57z"/>
	<path fill="#919294" d="M125.359,228.595c-0.483-0.118-0.966-0.233-1.448-0.349c0.139-0.727-0.291-2.069,0.511-2.051
		C125.919,226.229,125.245,227.687,125.359,228.595z"/>
	<path fill="#B3B3B5" d="M131.043,233.845c-0.832,0.983-1.896,0.67-2.043-0.006c-0.324-1.503,0.81-0.298,1.254-0.421
		C130.447,233.365,130.738,233.669,131.043,233.845z"/>
	<path fill="#88898C" d="M145.539,156.604c1.281,1.613,2.346,3.444,4.35,4.338c0.516,5.034-3.094,8.93-3.812,13.678
		c-0.289,1.929-2.062,1.184-2.89-0.063c-1.006-1.519-1.222-3.288-1.265-5.134c-0.062-2.762-0.258-5.393-4.457-4.43
		c-1.892,0.435-3.411-0.914-3.535-3.137c-0.165-2.943,1.842-5.638,4.506-5.859C140.82,155.796,143.213,155.893,145.539,156.604z"/>
	<path fill="#88898C" d="M121.683,160.334c2.784,0.943,3.966,4.312,7.312,4.619c1.197,0.109,1.457,1.758,0.91,3.039
		c-0.656,1.537-1.181,3.154-2.039,4.57c-1.417,2.336-2.047,4.778-1.805,7.484c0.08,0.898,0.561,2.043-0.692,2.479
		c-1.08,0.377-1.794-0.471-2.408-1.203c-0.457-0.545-0.997-1.153-1.13-1.812c-0.779-3.812-2.162-7.203-5.48-9.599
		c-0.966-0.694-0.724-1.888-0.259-2.979c1.137-2.668,2.781-4.933,5.049-6.737l-0.083,0.047
		C121.332,159.816,121.54,159.846,121.683,160.334z"/>
	<path fill="#8E8F91" d="M163.609,171.783c-0.499,0.932-0.999,1.858-1.499,2.787c-0.653,1-1.312,2-1.967,3
		c-0.78,0.893-1.562,1.78-2.34,2.672c-2.744-0.77-1.666-3.472-1.48-4.644c0.401-2.53,2.884-4.155,4.908-5.661
		C161.901,169.439,163.598,170.115,163.609,171.783z"/>
	<path fill="#8C8D90" d="M141.989,187.775c-2.653-0.02-5.312-0.039-7.968-0.059c-0.594-0.194-1.257-0.941-0.422-1.02
		c5.4-0.502,10.607-3.586,16.226-1.346C147.381,186.709,144.711,187.326,141.989,187.775z"/>
	<path fill="#F4F4F4" d="M130.252,145.152c-1.323-0.174-3.295-2.408-3.468,1.094c-0.032,0.649-0.407,0.771-0.963,0.557
		c-0.93-0.354-1.726-0.785-1.795-1.971c-0.044-0.758-0.111-1.479,0.756-1.771c2.575-0.868,5.106-1.539,6.207,2.062
		C130.743,145.129,130.498,145.141,130.252,145.152z"/>
	<path fill="#D5D5D6" d="M121.683,160.334l-0.321,0.021l-0.304-0.11c0.008-0.488,0.015-0.98,0.023-1.476
		c1.348-0.634,1.348-0.634,3.062,0.89C123.583,160.83,122.296,159.41,121.683,160.334z"/>
	<path fill="#9B9C9E" d="M160.907,167.378c0.233,0.735-0.235,0.916-0.702,0.993c-0.832,0.14-1.004-0.445-1-1.084
		c0-0.448-0.037-1.059,0.606-1.062C160.547,166.218,160.617,166.979,160.907,167.378z"/>
	<path fill="#F1F1F1" d="M144.363,151.894c1.084-0.319,2.044-0.708,2.646,0.558c0.104,0.227-0.205,0.912-0.262,0.905
		C145.82,153.238,144.991,152.897,144.363,151.894z"/>
	<path fill="#717275" d="M194,158.49c-0.095,1.824-0.145,3.756-2.233,3.66c-2.239-0.102-2.222-2.152-2.194-3.854
		c0.022-1.631,0.26-3.397,2.424-3.215C194.166,155.267,193.832,157.217,194,158.49z"/>
	<path fill="#737477" d="M97.183,158.953c1.376,0.209,1.894,1.119,1.855,2.278c-0.033,0.99-0.449,1.89-1.677,1.931
		c-1.233,0.039-1.698-0.826-1.783-1.822C95.479,160.174,95.982,159.267,97.183,158.953z"/>
	<path fill="#76777A" d="M208.684,163.185c-1.315-0.101-1.831-0.896-1.854-2.101c-0.021-1.055,0.449-1.911,1.498-2.057
		c1.297-0.183,1.901,0.774,2.023,1.899C210.48,162.104,209.933,162.949,208.684,163.185z"/>
	<path fill="#E2E4E6" d="M146.347,103.452c0.001-0.955,0.057-1.915-0.013-2.865c-0.108-1.536,0.203-2.537,2.09-2.398
		c1.668,0.123,3.535-0.263,3.56,2.309c0.013,1.313-0.052,2.63,0.024,3.939c0.146,2.4-0.073,4.134-3.312,4.082
		c-3.445-0.055-2.055-2.399-2.34-3.994C146.293,104.178,146.347,103.81,146.347,103.452z"/>
	<path fill="#E2E4E6" d="M197.459,108.681c0.004,2.52-0.057,5.042,0.021,7.56c0.062,2.004-0.843,2.73-2.791,2.834
		c-2.174,0.114-2.241-1.103-2.229-2.701c0.045-5.158,0.047-10.319-0.002-15.479c-0.015-1.516,0.17-2.598,2.092-2.463
		c1.572,0.11,2.908,0.325,2.902,2.332C197.445,103.399,197.451,106.04,197.459,108.681z"/>
	<path fill="#E5E6E7" d="M119.536,108.755c0-2.517,0.094-5.039-0.028-7.551c-0.119-2.457,1.025-3.631,3.357-3.587
		c2.113,0.041,3.259,1.115,3.228,3.405c-0.067,5.154-0.041,10.31-0.014,15.465c0.01,2.211-1.023,3.354-3.231,3.409
		c-2.459,0.063-3.412-1.213-3.33-3.588C119.602,113.793,119.536,111.272,119.536,108.755z"/>
	<path fill="#E4D8D7" d="M119.347,207.591c0.562-1.076-1.092-3.679,1.408-3.731c2.512-0.055,1.322,2.506,1.602,3.971
		c0.088,0.459,0.037,0.951,0.007,1.431c-0.078,1.261,0.25,2.931-1.754,2.823c-1.904-0.096-1.05-1.762-1.248-2.791
		C119.273,208.83,119.347,208.341,119.347,207.591z"/>
	<path fill="#E5DDDD" d="M106.833,208.185c-0.003,0.597,0.022,1.192-0.009,1.785c-0.049,0.953-0.013,2.054-1.359,2.085
		c-1.516,0.034-1.61-1.114-1.624-2.238c-0.014-1.188-0.007-2.383-0.006-3.572c0-1.092-0.047-2.373,1.412-2.431
		c1.792-0.069,1.525,1.433,1.584,2.583C106.86,206.992,106.835,207.59,106.833,208.185z"/>
	<path fill="#E4DBDA" d="M135.504,212.094c-0.91-0.068-1.49-0.477-1.418-1.324c0.125-1.458,1.277-1.488,2.371-1.501
		c0.9-0.009,1.326,0.479,1.114,1.343C137.307,211.701,136.405,211.988,135.504,212.094z"/>
	<path fill="#E3D3D1" d="M187.002,206.13c-0.879,0.175-1.17-0.304-1.186-0.95c-0.021-0.954,0.438-1.596,1.458-1.575
		c0.744,0.015,1.469,0.322,1.438,1.183C188.676,205.861,187.625,205.839,187.002,206.13z"/>
</g>
</svg>
